<svg xmlns="http://www.w3.org/2000/svg" viewBox="0 0 540.13 204.8" fill="#fff"><path d="m229.32 16.35-.93.13c-1.77-3.46-3.79-6.2-6.05-8.24q-3.39-3.06-9.24-4.65c-3.9-1.06-9.09-1.68-15.55-1.86v79.1c0 3.28.6 5.87 1.79 7.78 1.2 1.91 3.13 3.17 5.78 3.79v.66h-22.33v-.66c2.66-.62 4.58-1.88 5.78-3.79 1.19-1.91 1.79-4.5 1.79-7.78V1.73c-9.48.26-16.48 1.68-21 4.25s-7.89 6.07-10.1 10.5l-.93-.13L161.79 0H226zM306.09 4.39c-1.2 1.95-1.8 4.56-1.8 7.84v68.6c0 3.28.6 5.87 1.8 7.78 1.19 1.91 3.12 3.17 5.78 3.79v.66h-22.33v-.66c2.66-.62 4.59-1.88 5.78-3.79s1.79-4.5 1.79-7.78V32.84l-47.06 2.66v45.33c0 3.28.6 5.87 1.79 7.78 1.2 1.91 3.13 3.17 5.78 3.79v.66h-22.33v-.66c2.66-.62 4.58-1.88 5.78-3.79s1.79-4.5 1.79-7.78v-68.6c0-3.28-.6-5.89-1.79-7.84-1.2-1.95-3.12-3.24-5.78-3.86V0h22.33v.53c-2.66.62-4.59 1.9-5.78 3.86-1.19 1.95-1.79 4.56-1.79 7.84v18.48l47.06.26V12.23c0-3.28-.6-5.89-1.79-7.84-1.2-1.95-3.13-3.24-5.78-3.86V0h22.33v.53c-2.66.62-4.58 1.9-5.78 3.86M379.27 93.06h-59.42v-.66c5.05-.97 7.58-4.83 7.58-11.56V12.23c0-7-1.86-10.86-5.58-11.57V0h53.04l1.2 16.09h-1.06c-1.24-4.26-3.41-7.4-6.51-9.44s-7.18-3.35-12.23-3.92c-5.05-.58-12.27-.86-21.67-.86v30.58l35.76-2.26-.4 6.38-35.36-2.26v46.53c0 6.91 6.38 10.37 19.15 10.37 4.87 0 8.95-.42 12.23-1.26q4.92-1.26 8.31-4.92c2.26-2.44 3.97-5.96 5.12-10.57h1.06l-1.2 18.61ZM102.1 199.35c1.6 1.51 3.99 2.66 7.18 3.46v.66H82.82v-.66c3.19-.8 5.45-1.88 6.78-3.26 1.33-1.37 2.04-3.57 2.13-6.58l-3.99-72.32-33.37 78.7h-1.86l-35.89-76.58L14.23 181q-.27 10.905 2.19 15.75c1.64 3.24 4.85 5.25 9.64 6.05v.66H0l.13-.66c2.48-.71 4.57-2.59 6.25-5.65s2.84-7.24 3.46-12.56l5.18-65.14-3.72-8.11.93-.93h7.58l36.43 79.36 31.64-79.36h13.43v.93c-1.86.35-3.37 1.17-4.52 2.46-1.15 1.28-1.82 2.99-1.99 5.12l4.38 73.65c.35 3.01 1.33 5.27 2.93 6.78ZM113.73 181.8q-5.91-10.905-5.91-24.99c0-14.085 1.97-17.57 5.91-24.79s9.44-12.85 16.48-16.88c7.05-4.03 15.13-6.05 24.26-6.05s17.21 2.02 24.26 6.05 12.52 9.66 16.42 16.88 5.85 15.49 5.85 24.79-1.95 17.73-5.85 24.99c-3.9 7.27-9.37 12.92-16.42 16.95s-15.13 6.05-24.26 6.05-17.22-2.02-24.26-6.05-12.54-9.68-16.48-16.95m78.57-.47q4.59-8.445 4.59-19.74c0-8.69-2.17-16.59-6.52-23.73-4.34-7.13-10.19-12.76-17.55-16.88s-15.42-6.18-24.19-6.18c-7.44 0-13.94 1.51-19.47 4.52-5.54 3.01-9.8 7.33-12.76 12.96-2.97 5.63-4.45 12.16-4.45 19.61 0 8.42 2.19 16.24 6.58 23.47 4.38 7.22 10.26 12.94 17.61 17.15 7.36 4.21 15.24 6.31 23.66 6.31 7.45 0 13.96-1.51 19.54-4.52q8.37-4.515 12.96-12.96ZM281.43 202.8v.66h-20.74v-.66c3.55-.71 5.32-2.3 5.32-4.78 0-1.06-.27-2.26-.8-3.59l-23.53-42.67h-22.73v39.48c0 3.19 1.08 5.74 3.26 7.64 2.17 1.9 5.6 3.21 10.3 3.92v.66h-28.32v-.66c2.66-.62 4.58-1.88 5.78-3.79s1.79-4.5 1.79-7.78v-68.6c0-7-1.86-10.86-5.58-11.57v-.66h9.17c2.22 0 5.72-.18 10.5-.53 6.03-.53 11.39-.8 16.09-.8 10.19 0 18.23 1.82 24.12 5.45 5.9 3.64 8.84 9.04 8.84 16.22 0 5.94-2.39 10.72-7.18 14.36-4.78 3.63-12.05 5.76-21.8 6.38l27.12 40.01c2.04 3.01 3.74 5.47 5.12 7.38 1.37 1.9 2.46 3.21 3.26 3.92Zm-14.76-70.85c0-4.08-1.24-7.73-3.72-10.97s-5.92-5.74-10.3-7.51-9.41-2.66-15.09-2.66c-6.12 0-10.75.86-13.89 2.59-3.15 1.73-4.72 4.68-4.72 8.84v23.53c2.84 1.06 6.11 1.99 9.84 2.79q5.58 1.2 10.77 1.2c9.13 0 15.93-1.55 20.41-4.65 4.47-3.1 6.71-7.49 6.71-13.16ZM373.69 156.94v.66c-3.19.8-4.79 3.77-4.79 8.91v38.28h-1.06l-5.85-17.02c-3.1 4.52-7.36 8.49-12.76 11.9-5.41 3.41-12.27 5.12-20.6 5.12-8.86 0-16.91-2.02-24.13-6.05s-12.89-9.8-17.02-17.28c-4.12-7.49-6.18-16.2-6.18-26.12s2.17-18.24 6.51-25.19c4.34-6.96 10.15-12.21 17.42-15.75 7.27-3.55 15.24-5.32 23.93-5.32s17.06 1.46 24.33 4.39c7.27 2.92 12.72 5.85 16.35 8.77l-3.99 18.35h-1.06c-.27-5.85-2.37-10.79-6.31-14.82q-5.925-6.045-15.09-8.97c-6.12-1.95-12.54-2.93-19.28-2.93-8.15 0-15.18 1.66-21.07 4.98-5.89 3.33-10.39 7.84-13.49 13.56s-4.65 12.16-4.65 19.34c0 9.48 2.33 17.75 6.98 24.79s10.63 12.43 17.95 16.15c7.31 3.72 14.82 5.58 22.54 5.58 6.65 0 12.49-1.24 17.55-3.72 5.05-2.48 9-5.49 11.83-9.04v-16.35q0-5.58-3.06-8.04c-2.04-1.64-5.76-2.81-11.17-3.52v-.66h26.19ZM453.85 202.8v.66h-24.06v-.66c2.66-.53 4.56-1.31 5.71-2.33s1.73-2.5 1.73-4.45c0-1.42-.35-3.32-1.06-5.72l-8.37-21.8-36.29 3.06-3.72 10.64h.13c-1.59 4.61-2.39 8.24-2.39 10.9 0 2.84.86 4.97 2.59 6.38 1.73 1.42 4.49 2.53 8.31 3.32v.66H371.3v-.66c1.77-.97 3.41-2.59 4.92-4.85q2.265-3.39 5.85-11.76l26.19-67.8-3.32-8.64.93-.66 7.04 1.46 29.65 75.91q3.06 7.71 5.52 11.1c1.64 2.26 3.57 4.01 5.78 5.25Zm-60.62-36.02H427l-17.81-46.13-15.95 46.13ZM540.13 110.41v.66q-4.38 1.065-6.51 4.59c-1.42 2.35-2.31 6.36-2.66 12.03l-1.33 77.1h-1.46l-60.89-81.49 1.06 60.75c0 4.69.47 8.24 1.4 10.63s2.33 4.14 4.19 5.25 4.57 2.06 8.11 2.86v.66h-26.45l.13-.66c1.86-.62 3.35-1.42 4.46-2.39 1.11-.98 1.99-2.5 2.66-4.59.66-2.08 1.08-5.03 1.26-8.84l1.33-66.07-7.18-9.57.93-.93h7.58l60.89 80.16-1.33-63.94c-.18-3.72-.75-6.6-1.73-8.64-.97-2.04-2.3-3.55-3.99-4.52s-3.99-1.77-6.91-2.39v-.66h26.45Z"/></svg>
